<svg width="59" height="59" viewBox="0 0 59 59" fill="none" xmlns="http://www.w3.org/2000/svg">
<g clip-path="url(#clip0)">
<path fill-rule="evenodd" clip-rule="evenodd" d="M29.613 53.8344H2.6738C1.17305 53.8344 0.278183 53.0007 0.230469 51.9326V57.1487C0.230469 58.1665 1.06412 59.0001 2.07827 59.0001H57.141C58.1552 59.0001 58.9888 58.1665 58.9888 57.1487V52.0514C58.8835 53.0619 57.9985 53.8344 56.5558 53.8344H29.613Z" fill="#91561A"/>
<path fill-rule="evenodd" clip-rule="evenodd" d="M2.48294 47.8593L0.761178 50.3161C0.420876 50.8027 0.250725 51.296 0.230469 51.752V51.9325C0.278183 53.0007 1.17305 53.8343 2.6738 53.8343H56.5558C57.9985 53.8343 58.8835 53.0619 58.9888 52.0514C59.0469 51.5139 58.8835 50.908 58.4649 50.3161L56.7431 47.8593C55.9639 46.7465 55.011 45.3957 53.6772 45.2935C53.6264 45.2899 52.8233 45.2867 52.7689 45.2867C51.2105 46.6344 47.9947 47.0733 44.3878 47.0733H14.4097C10.8059 47.0733 7.58702 46.6344 6.03181 45.2867C5.96744 45.2867 5.58302 45.2903 5.5218 45.2935C4.20471 45.4128 3.25898 46.7533 2.48294 47.8593Z" fill="#B5722F"/>
<path fill-rule="evenodd" clip-rule="evenodd" d="M5.78007 40.6657C4.64033 42.8195 4.88835 44.2964 6.03169 45.2867C7.58691 46.6344 10.8058 47.0733 14.4096 47.0733H15.3724L18.9758 43.6843L14.6918 40.3357C11.4221 37.7803 8.03974 39.3792 5.78007 40.6657Z" fill="#FFDDA6"/>
<path fill-rule="evenodd" clip-rule="evenodd" d="M44.1086 40.3357L41.4375 43.6942L43.428 47.0734H44.3877C47.9942 47.0734 51.2099 46.6345 52.7683 45.2868C53.9085 44.2965 54.1601 42.8196 53.0204 40.6657C50.7576 39.3792 48.1373 39.3522 44.1086 40.3357Z" fill="#FFDDA6"/>
<path fill-rule="evenodd" clip-rule="evenodd" d="M17.1997 27.524C12.977 27.7486 11.3813 30.083 9.34984 33.9213L5.78027 40.6657C8.03995 39.3792 10.6597 39.3522 14.692 40.3357H44.1088C48.1375 39.3522 50.7577 39.3792 53.0206 40.6657L49.4479 33.9213C47.4164 30.083 45.8238 27.7522 41.6011 27.524C40.6482 27.4763 39.842 27.3575 39.1168 27.1022L19.6363 27.1157C18.9215 27.3642 18.1324 27.4763 17.1997 27.524Z" fill="#64B0D9"/>
<path fill-rule="evenodd" clip-rule="evenodd" d="M39.6989 12.4426C36.854 14.583 37.8204 16.3426 39.5287 17.3225C40.8796 17.3428 42.387 15.951 42.387 14.5866V13.5216C42.387 12.9261 41.9005 12.4426 41.3081 12.4426H39.6989Z" fill="#EDA93B"/>
<path fill-rule="evenodd" clip-rule="evenodd" d="M15.6787 14.5866C15.6787 15.951 17.1862 17.3428 18.5339 17.3225L20.6977 14.6582L18.3669 12.4426H16.7577C16.1653 12.4426 15.6787 12.9261 15.6787 13.5216V14.5866Z" fill="#EDA93B"/>
<path fill-rule="evenodd" clip-rule="evenodd" d="M43.7618 43.7689L43.4282 47.0733H44.3879C47.9944 47.0733 51.2102 46.634 52.7685 45.2868C53.7485 44.436 54.0721 43.2278 53.4221 41.5367C53.2961 41.6969 53.1529 41.8432 52.9931 41.9828C51.4348 43.3336 48.219 43.7689 44.6125 43.7689H43.7618Z" fill="#FCC368"/>
<path fill-rule="evenodd" clip-rule="evenodd" d="M5.35848 41.588C4.73234 43.2517 5.05914 44.4464 6.03233 45.2868C7.5871 46.634 10.8065 47.0734 14.4098 47.0734H15.3726L15.0323 43.7046H14.0695C10.4662 43.7046 7.24724 43.2657 5.69203 41.918C5.56959 41.8126 5.46066 41.7037 5.35848 41.588Z" fill="#FCC368"/>
<path fill-rule="evenodd" clip-rule="evenodd" d="M37.1025 29.2053C37.7557 29.4024 38.4772 29.4978 39.3109 29.542C43.5336 29.7666 45.1262 32.0974 47.1608 35.9357L49.1243 39.6448C50.6115 39.679 51.8638 40.0058 53.0206 40.6657L49.4475 33.9213C47.416 30.083 45.8239 27.7522 41.6007 27.524C40.6482 27.4767 39.8416 27.3575 39.1169 27.1022C38.6442 27.9188 37.9497 28.6196 37.1025 29.2053Z" fill="#4A83C9"/>
<path fill-rule="evenodd" clip-rule="evenodd" d="M19.8473 27.4119C23.4916 32.931 36.027 32.4413 39.1167 27.1022C38.1606 26.7619 37.3405 26.1835 36.483 25.1932C36.18 24.8497 35.35 24.0327 35.3023 23.9715L29.8615 20.5212L23.1684 24.3087C22.8925 24.5873 22.5049 24.9789 22.3177 25.1932C21.4467 26.197 20.6094 26.7822 19.6362 27.1157C19.6938 27.2179 19.7825 27.3129 19.8473 27.4119Z" fill="#FCC368"/>
<path fill-rule="evenodd" clip-rule="evenodd" d="M18.5337 17.3226C19.0676 19.8033 20.8303 22.4573 23.1678 24.3087C24.0118 24.9753 24.9306 25.5366 25.8902 25.9521C26.05 26.0201 26.2134 26.0849 26.3732 26.1461C28.3129 26.8641 29.7695 26.8605 31.7019 26.1394C32.9952 25.6559 34.22 24.9006 35.3021 23.9715C37.4389 22.1444 39.0283 19.657 39.5284 17.3226C39.6405 16.8121 39.6986 16.3084 39.6986 15.8218V10.0268L29.8613 7.3728L18.3667 10.0268V15.8218C18.3667 16.3084 18.4248 16.8121 18.5337 17.3226Z" fill="#FFDDA6"/>
<path fill-rule="evenodd" clip-rule="evenodd" d="M36.7209 11.0135V16.8085C36.7209 17.2951 36.6633 17.7988 36.5544 18.3093C36.0543 20.6437 34.4617 23.1311 32.3281 24.9582C31.566 25.6082 30.7359 26.1767 29.8613 26.6255C30.4429 26.5472 31.0452 26.3838 31.7019 26.1389C32.0458 26.0129 32.3861 25.8634 32.7161 25.7C33.6348 25.2441 34.5094 24.6521 35.3021 23.9715C37.4393 22.144 39.0283 19.6565 39.5284 17.3226C39.6405 16.8121 39.6986 16.3084 39.6986 15.8218V10.0268C38.6128 10.4387 37.6261 10.7619 36.7209 11.0135Z" fill="#FCC368"/>
<path fill-rule="evenodd" clip-rule="evenodd" d="M18.3667 10.0268C27.68 7.5155 26.9247 14.8824 39.6986 10.0268C45.6021 5.73251 39.8143 -2.58058 33.4953 0.781482C30.3749 2.44203 26.479 0.0225542 23.2124 1.45848C20.0106 2.86741 18.3667 5.87566 18.3667 10.0268Z" fill="#808080"/>
<path fill-rule="evenodd" clip-rule="evenodd" d="M33.0059 1.0061C38.1811 0.563616 41.8357 7.29448 36.7213 11.0135C37.6265 10.7619 38.6132 10.4387 39.6989 10.0268C45.6024 5.73251 39.8146 -2.58058 33.4956 0.781482C33.3322 0.866557 33.1688 0.94128 33.0059 1.0061Z" fill="#666666"/>
<path fill-rule="evenodd" clip-rule="evenodd" d="M34.5437 27.5956C35.2783 28.3545 36.0035 28.824 36.8268 29.1166C36.9186 29.1472 37.0073 29.1778 37.1023 29.2053C37.9499 28.6201 38.644 27.9188 39.1166 27.1022L39.0657 27.082C38.1335 26.7417 37.3237 26.1664 36.4797 25.1968C36.1799 24.8498 35.3499 24.0328 35.3022 23.9716C34.22 24.9006 32.9952 25.656 31.7024 26.1394C29.7696 26.8605 28.3129 26.8641 26.3738 26.1462C26.2135 26.0849 26.0506 26.0201 25.8903 25.9522C24.9311 25.5367 24.0119 24.9754 23.1683 24.3087C22.8924 24.5873 22.5048 24.979 22.3176 25.1932C22.2154 25.3125 22.1168 25.421 22.0146 25.5268C22.3072 25.7888 22.6102 26.0404 22.923 26.2789C23.8012 26.9456 24.7609 27.5074 25.7643 27.9224C25.9313 27.9904 26.0978 28.0552 26.268 28.1128C28.2859 28.8344 29.8069 28.8312 31.8244 28.1096C32.3997 27.9053 32.961 27.6501 33.5021 27.3507C33.6997 27.2418 34.0026 27.0374 34.5437 27.5956Z" fill="#EDA93B"/>
<path fill-rule="evenodd" clip-rule="evenodd" d="M16.8357 49.8939L15.3723 47.0733H14.4095C10.8057 47.0733 7.58678 46.634 6.03157 45.2867C5.9672 45.2867 5.58278 45.2899 5.52156 45.2935C4.82386 45.3583 4.23193 45.763 3.71112 46.2941C3.69087 46.3144 3.68051 46.3248 3.68051 46.3248C3.54097 46.4742 3.40503 46.6273 3.27539 46.7907C4.38812 49.758 13.8342 49.8939 16.8357 49.8939Z" fill="#91561A"/>
<path fill-rule="evenodd" clip-rule="evenodd" d="M41.9648 49.8939L43.4282 47.0733H44.3879C47.9944 47.0733 51.2102 46.6376 52.7685 45.2867H52.8131C52.9932 45.2867 53.6296 45.2899 53.6774 45.2935C54.4223 45.348 55.0485 45.7972 55.5931 46.3756L55.5859 46.372C55.5931 46.3756 55.5963 46.3788 55.603 46.3855L55.6201 46.4026C55.6611 46.4467 55.5999 46.6273 55.5247 46.7907C54.4088 49.758 44.9627 49.8939 41.9648 49.8939Z" fill="#91561A"/>
<path fill-rule="evenodd" clip-rule="evenodd" d="M14.6919 40.3357L15.3726 47.0733L15.5256 48.584C15.5972 49.2983 16.1144 49.8907 16.8323 49.8907H41.9652C42.6863 49.8907 43.2035 49.2983 43.2751 48.584L43.4281 47.0733L44.1087 40.3357L44.6228 35.2415C44.6943 34.5236 44.034 33.9316 43.3124 33.9316H15.4846C14.7667 33.9316 14.1032 34.5236 14.1747 35.2415L14.6919 40.3357Z" fill="#E6E6E6"/>
<path fill-rule="evenodd" clip-rule="evenodd" d="M26.6763 41.9112C26.6763 43.2143 27.8943 44.2726 29.3987 44.2726C30.9026 44.2726 32.1243 43.2143 32.1243 41.9112C32.1243 40.6076 30.9026 39.5529 29.3987 39.5529C27.8948 39.5529 26.6763 40.608 26.6763 41.9112Z" fill="#FCC368"/>
<path fill-rule="evenodd" clip-rule="evenodd" d="M15.3726 47.0734L15.5256 48.584C15.5396 48.7168 15.5666 48.8496 15.6107 48.972C15.7979 49.5027 16.2503 49.8908 16.8323 49.8908H41.9652C42.5504 49.8908 42.9996 49.5027 43.1868 48.972C43.231 48.8496 43.2616 48.7168 43.2751 48.584L43.4281 47.0734H15.3726Z" fill="#C2C7CC"/>
<path d="M24.9308 17.8047C24.4352 17.8047 24.0337 17.4031 24.0337 16.9075V15.9037C24.0337 15.4081 24.4352 15.0062 24.9308 15.0062C25.4264 15.0062 25.8284 15.4081 25.8284 15.9037V16.9075C25.8284 17.4027 25.4264 17.8047 24.9308 17.8047Z" fill="#666666"/>
<path d="M33.2536 17.8047C32.758 17.8047 32.3564 17.4031 32.3564 16.9075V15.9037C32.3564 15.4081 32.758 15.0062 33.2536 15.0062C33.7492 15.0062 34.1511 15.4081 34.1511 15.9037V16.9075C34.1511 17.4027 33.7496 17.8047 33.2536 17.8047Z" fill="#666666"/>
</g>
<defs>
<clipPath id="clip0">
<rect width="59" height="59" fill="white"/>
</clipPath>
</defs>
</svg>
