<svg width="59" height="59" viewBox="0 0 59 59" fill="none" xmlns="http://www.w3.org/2000/svg">
<path d="M29.5 59C45.7924 59 59 45.7924 59 29.5C59 13.2076 45.7924 0 29.5 0C13.2076 0 0 13.2076 0 29.5C0 45.7924 13.2076 59 29.5 59Z" fill="#FE8205"/>
<path d="M59 29.5C59 13.2969 45.7031 0 29.5 0V59C45.7031 59 59 45.7031 59 29.5Z" fill="#FA5D0F"/>
<path d="M29.5 7.0293C17.11 7.0293 7.0293 17.11 7.0293 29.5C7.0293 41.89 17.11 52.0859 29.5 52.0859C41.89 52.0859 51.9707 41.89 51.9707 29.5C51.9707 17.11 41.89 7.0293 29.5 7.0293Z" fill="#F0F7FF"/>
<path d="M51.9707 29.5C51.9707 17.11 41.89 7.0293 29.5 7.0293V52.0859C41.89 52.0859 51.9707 41.89 51.9707 29.5Z" fill="#DFE7F4"/>
<path d="M29.5 13.9434C28.5446 13.9434 27.7715 14.7165 27.7715 15.6719V32.957C27.7715 33.9124 28.5446 34.6855 29.5 34.6855C30.4554 34.6855 31.2285 33.9124 31.2285 32.957V15.6719C31.2285 14.7165 30.4554 13.9434 29.5 13.9434Z" fill="#575F64"/>
<path d="M31.2285 32.957V15.6719C31.2285 14.7165 30.4554 13.9434 29.5 13.9434V34.6855C30.4554 34.6855 31.2285 33.9124 31.2285 32.957Z" fill="#474F54"/>
<path d="M39.8711 27.7715H29.5H26.043C25.0876 27.7715 24.3145 28.5446 24.3145 29.5C24.3145 30.4554 25.0876 31.2285 26.043 31.2285H29.5H39.8711C40.8265 31.2285 41.5996 30.4554 41.5996 29.5C41.5996 28.5446 40.8265 27.7715 39.8711 27.7715Z" fill="#575F64"/>
<path d="M41.5996 29.5C41.5996 28.5446 40.8265 27.7715 39.8711 27.7715H29.5V31.2285H39.8711C40.8265 31.2285 41.5996 30.4554 41.5996 29.5Z" fill="#474F54"/>
</svg>
