<svg width="38" height="38" viewBox="0 0 38 38" fill="none" xmlns="http://www.w3.org/2000/svg">
<path d="M26.9163 33.25V30.0833C26.9163 28.4036 26.2491 26.7927 25.0613 25.605C23.8736 24.4173 22.2627 23.75 20.583 23.75H7.91634C6.23664 23.75 4.62573 24.4173 3.438 25.605C2.25027 26.7927 1.58301 28.4036 1.58301 30.0833V33.25" stroke="#3B3984" stroke-width="3" stroke-linecap="round" stroke-linejoin="round"/>
<path d="M14.2503 17.4167C17.7481 17.4167 20.5837 14.5811 20.5837 11.0833C20.5837 7.58553 17.7481 4.75 14.2503 4.75C10.7525 4.75 7.91699 7.58553 7.91699 11.0833C7.91699 14.5811 10.7525 17.4167 14.2503 17.4167Z" stroke="#3B3984" stroke-width="3" stroke-linecap="round" stroke-linejoin="round"/>
<path d="M36.417 33.2502V30.0836C36.4159 28.6803 35.9489 27.3171 35.0892 26.2081C34.2294 25.099 33.0257 24.3069 31.667 23.9561" stroke="#3B3984" stroke-width="3" stroke-linecap="round" stroke-linejoin="round"/>
<path d="M25.333 4.95605C26.6953 5.30486 27.9028 6.09716 28.7651 7.20805C29.6274 8.31893 30.0954 9.6852 30.0954 11.0915C30.0954 12.4977 29.6274 13.864 28.7651 14.9749C27.9028 16.0858 26.6953 16.8781 25.333 17.2269" stroke="#3B3984" stroke-width="3" stroke-linecap="round" stroke-linejoin="round"/>
</svg>
