<svg width="28" height="28" viewBox="0 0 28 28" fill="none" xmlns="http://www.w3.org/2000/svg">
<g clip-path="url(#clip0)">
<path d="M26.7495 22.1632C26.7495 22.7714 26.5079 23.3546 26.0779 23.7847C25.6479 24.2147 25.0646 24.4563 24.4564 24.4563H3.81849C3.21033 24.4563 2.62707 24.2147 2.19703 23.7847C1.76698 23.3546 1.52539 22.7714 1.52539 22.1632V9.55112C1.52539 8.94295 1.76698 8.35969 2.19703 7.92965C2.62707 7.49961 3.21033 7.25801 3.81849 7.25801H8.4047L10.6978 3.81836H17.5771L19.8702 7.25801H24.4564C25.0646 7.25801 25.6479 7.49961 26.0779 7.92965C26.5079 8.35969 26.7495 8.94295 26.7495 9.55112V22.1632Z" stroke="black" stroke-width="2" stroke-linecap="round" stroke-linejoin="round"/>
<path d="M14.138 19.8707C16.6709 19.8707 18.7242 17.8173 18.7242 15.2844C18.7242 12.7516 16.6709 10.6982 14.138 10.6982C11.6051 10.6982 9.55176 12.7516 9.55176 15.2844C9.55176 17.8173 11.6051 19.8707 14.138 19.8707Z" stroke="black" stroke-width="2" stroke-linecap="round" stroke-linejoin="round"/>
</g>
<defs>
<clipPath id="clip0">
<rect x="0.378906" y="0.378906" width="27.5172" height="27.5172" fill="white"/>
</clipPath>
</defs>
</svg>
