<svg width="36" height="36" viewBox="0 0 36 36" fill="none" xmlns="http://www.w3.org/2000/svg">
<circle cx="18" cy="18" r="18" fill="white" fill-opacity="0.23"/>
<g clip-path="url(#clip0)">
<path d="M13.8689 10.9894C12.6778 10.9897 11.709 11.9585 11.709 13.1496C11.709 14.3407 12.6778 15.3093 13.8689 15.3093C15.06 15.3093 16.0289 14.3405 16.0289 13.1494C16.0289 11.9583 15.06 10.9894 13.8689 10.9894ZM13.8689 14.5896C13.0736 14.5896 12.429 13.945 12.429 13.1496C12.429 12.3543 13.0736 11.7097 13.8689 11.7097C14.6642 11.7097 15.3089 12.3543 15.3089 13.1496C15.3089 13.945 14.6643 14.5896 13.8689 14.5896Z" fill="white"/>
<path d="M24.6688 14.5894H17.469C17.0713 14.5894 16.749 14.9117 16.749 15.3094V15.8592L17.469 16.2192V15.3094H24.6688V21.069H17.469V20.2132L16.749 20.0334V21.069C16.749 21.4667 17.0713 21.789 17.469 21.789H20.4334L18.6003 24.8438C18.4976 25.014 18.5533 25.2355 18.7242 25.3375C18.8929 25.4409 19.1151 25.3852 19.2178 25.2137L20.7089 22.7283V25.0286C20.7089 25.2276 20.8699 25.3886 21.0689 25.3886C21.2678 25.3886 21.4289 25.2276 21.4289 25.0286V22.7283L22.9202 25.2134C22.9876 25.326 23.1071 25.3884 23.2288 25.3884C23.2922 25.3884 23.356 25.3723 23.4139 25.337C23.5847 25.235 23.6402 25.0135 23.5377 24.8434L21.7046 21.7885H24.6688C25.0664 21.7885 25.3887 21.4662 25.3887 21.0685V15.3094C25.3888 14.9117 25.0665 14.5894 24.6688 14.5894Z" fill="white"/>
<path d="M23.5748 16.6501C23.5206 16.4589 23.3216 16.3463 23.1299 16.4034L18.6874 17.6728C18.6355 17.6226 18.5774 17.5787 18.5112 17.5453L15.6313 16.1054C15.5312 16.0555 15.4211 16.0293 15.3092 16.0293H12.4293C12.0813 16.0293 11.7832 16.2782 11.7209 16.6204L11.0009 20.58C10.9627 20.79 11.0196 21.0063 11.1564 21.1702C11.2932 21.3341 11.4957 21.4289 11.7094 21.4289H12.1694L12.4317 24.7257C12.4615 25.1 12.7737 25.3885 13.1493 25.3885H14.5893C14.9562 25.3885 15.2644 25.1128 15.3049 24.7482L15.9339 19.0875L18.0147 19.6076C18.0723 19.622 18.1308 19.6289 18.1892 19.6289C18.348 19.6289 18.5043 19.5763 18.6322 19.4765C18.8069 19.3402 18.9091 19.1307 18.9091 18.9089V18.3577L23.3281 17.0951C23.5194 17.0408 23.6298 16.8412 23.5748 16.6501ZM18.1891 18.9092L15.3092 18.1892L14.5892 24.6688H13.1493L12.8344 20.7089H11.7093L12.4293 16.7493H13.5093V18.9394C13.5093 19.1384 13.6703 19.2994 13.8693 19.2994C14.0682 19.2994 14.2292 19.1384 14.2292 18.9394V16.7492H15.3092L18.1891 18.1892V18.9092Z" fill="white"/>
</g>
<defs>
<clipPath id="clip0">
<rect x="10.9893" y="10.9894" width="14.4" height="14.4" fill="white"/>
</clipPath>
</defs>
</svg>
