<svg width="32" height="38" viewBox="0 0 32 38" fill="none" xmlns="http://www.w3.org/2000/svg">
<path d="M30.2502 35.5484H27.7986V5.51613C27.7986 4.83918 27.2498 4.29032 26.5728 4.29032H17.3793V1.22581C17.3793 0.548855 16.8305 0 16.1535 0H7.64942C6.97246 0 6.42361 0.548855 6.42361 1.22581V4.29032H5.42764C4.75069 4.29032 4.20183 4.83918 4.20183 5.51613V35.5484H1.75022C1.07327 35.5484 0.524414 36.0973 0.524414 36.7742C0.524414 37.4512 1.07327 38 1.75022 38H30.2502C30.9273 38 31.476 37.4512 31.476 36.7742C31.476 36.0973 30.9273 35.5484 30.2502 35.5484ZM8.87522 2.45161H14.9276V4.29032H8.87522V2.45161ZM13.5486 35.5484V30.3387H18.4518V35.5484H13.5486ZM20.9035 35.5484V30.3387H21.4397C22.1168 30.3387 22.6655 29.7899 22.6655 29.1129C22.6655 28.436 22.1168 27.8871 21.4397 27.8871C17.1759 27.8871 14.5099 27.8871 10.5607 27.8871C9.88375 27.8871 9.3349 28.436 9.3349 29.1129C9.3349 29.7899 9.88375 30.3387 10.5607 30.3387H11.097V35.5484H6.65345V6.74194H25.347V35.5484H20.9035ZM14.2381 10.3427C14.2381 11.0197 13.6893 11.5686 13.0123 11.5686H11.6333C10.9563 11.5686 10.4075 11.0197 10.4075 10.3427C10.4075 9.66579 10.9563 9.11694 11.6333 9.11694H13.0123C13.6893 9.11694 14.2381 9.66579 14.2381 10.3427ZM21.5164 10.3427C21.5164 11.0197 20.9676 11.5686 20.2905 11.5686H18.9115C18.2345 11.5686 17.6857 11.0197 17.6857 10.3427C17.6857 9.66579 18.2345 9.11694 18.9115 9.11694H20.2905C20.9676 9.11694 21.5164 9.66579 21.5164 10.3427ZM14.2381 14.9395C14.2381 15.6165 13.6893 16.1653 13.0123 16.1653H11.6333C10.9563 16.1653 10.4075 15.6165 10.4075 14.9395C10.4075 14.2626 10.9563 13.7137 11.6333 13.7137H13.0123C13.6893 13.7137 14.2381 14.2626 14.2381 14.9395ZM21.5164 14.9395C21.5164 15.6165 20.9676 16.1653 20.2905 16.1653H18.9115C18.2345 16.1653 17.6857 15.6165 17.6857 14.9395C17.6857 14.2626 18.2345 13.7137 18.9115 13.7137H20.2905C20.9676 13.7137 21.5164 14.2626 21.5164 14.9395ZM14.2381 19.5363C14.2381 20.2133 13.6893 20.7621 13.0123 20.7621H11.6333C10.9563 20.7621 10.4075 20.2133 10.4075 19.5363C10.4075 18.8593 10.9563 18.3105 11.6333 18.3105H13.0123C13.6893 18.3105 14.2381 18.8593 14.2381 19.5363ZM21.5164 19.5363C21.5164 20.2133 20.9676 20.7621 20.2905 20.7621H18.9115C18.2345 20.7621 17.6857 20.2133 17.6857 19.5363C17.6857 18.8593 18.2345 18.3105 18.9115 18.3105H20.2905C20.9676 18.3105 21.5164 18.8593 21.5164 19.5363ZM14.2381 24.1331C14.2381 24.81 13.6893 25.3589 13.0123 25.3589H11.6333C10.9563 25.3589 10.4075 24.81 10.4075 24.1331C10.4075 23.4561 10.9563 22.9073 11.6333 22.9073H13.0123C13.6893 22.9073 14.2381 23.4561 14.2381 24.1331ZM21.5164 24.1331C21.5164 24.81 20.9676 25.3589 20.2905 25.3589H18.9115C18.2345 25.3589 17.6857 24.81 17.6857 24.1331C17.6857 23.4561 18.2345 22.9073 18.9115 22.9073H20.2905C20.9676 22.9073 21.5164 23.4561 21.5164 24.1331Z" fill="#3B3984"/>
</svg>
