<svg width="24" height="24" viewBox="0 0 24 24" fill="none" xmlns="http://www.w3.org/2000/svg">
<g clip-path="url(#clip0)">
<path d="M4.80009 0C2.81494 0.000421863 1.2002 1.61517 1.2002 3.60032C1.2002 5.58546 2.81494 7.19984 4.80009 7.19984C6.78524 7.19984 8.39999 5.58509 8.39999 3.59994C8.39999 1.61475 6.78524 0 4.80009 0ZM4.80009 6.00025C3.47455 6.00025 2.40016 4.92586 2.40016 3.60032C2.40016 2.27478 3.47455 1.20039 4.80009 1.20039C6.12563 1.20039 7.20002 2.27478 7.20002 3.60032C7.20002 4.92586 6.12568 6.00025 4.80009 6.00025Z" fill="white"/>
<path d="M22.8002 5.99988H10.8006C10.1378 5.99988 9.60059 6.53705 9.60059 7.19984V8.11622L10.8006 8.71621V7.19984H22.8002V16.7991H10.8006V15.3728L9.60059 15.0732V16.7991C9.60059 17.4619 10.1378 17.9991 10.8006 17.9991H15.7412L12.6861 23.0906C12.5149 23.3742 12.6077 23.7433 12.8925 23.9133C13.1737 24.0857 13.5441 23.9929 13.7152 23.707L16.2004 19.5647V23.3986C16.2004 23.7302 16.4688 23.9986 16.8004 23.9986C17.132 23.9986 17.4004 23.7302 17.4004 23.3986V19.5647L19.8859 23.7066C19.9983 23.8942 20.1975 23.9982 20.4003 23.9982C20.5059 23.9982 20.6123 23.9714 20.7087 23.9126C20.9935 23.7426 21.0858 23.3734 20.915 23.0898L17.8599 17.9984H22.8002C23.4629 17.9984 24.0001 17.4612 24.0001 16.7984V7.19984C24.0002 6.53705 23.463 5.99988 22.8002 5.99988Z" fill="white"/>
<path d="M20.976 9.43452C20.8855 9.11573 20.5539 8.92814 20.2344 9.02334L12.8302 11.1389C12.7438 11.0553 12.647 10.9821 12.5366 10.9265L7.73673 8.52657C7.56995 8.44337 7.38635 8.39978 7.19993 8.39978H2.40007C1.82011 8.39978 1.32329 8.81456 1.21933 9.38497L0.0193623 15.9844C-0.0442453 16.3344 0.0505801 16.6947 0.278573 16.9679C0.506567 17.2411 0.844151 17.3991 1.20016 17.3991H1.96691L2.4041 22.8937C2.4537 23.5177 2.97409 23.9985 3.60009 23.9985H6.00002C6.61158 23.9985 7.12517 23.5389 7.19276 22.9313L8.24114 13.4968L11.709 14.3636C11.805 14.3876 11.9026 14.3991 11.9998 14.3991C12.2646 14.3991 12.525 14.3115 12.7382 14.1451C13.0294 13.9179 13.1998 13.5687 13.1998 13.1992V12.2804L20.5648 10.1761C20.8836 10.0857 21.0675 9.75288 20.976 9.43452ZM11.9998 13.1996L7.19993 11.9996L5.99997 22.7989H3.60004L3.07524 16.1991H1.20011L2.40007 9.59974H4.20002V13.25C4.20002 13.5816 4.46842 13.85 4.8 13.85C5.13159 13.85 5.39999 13.5816 5.39999 13.25V9.5997H7.19993L11.9998 11.9996V13.1996Z" fill="white"/>
</g>
<defs>
<clipPath id="clip0">
<rect width="24" height="24" fill="white"/>
</clipPath>
</defs>
</svg>
