<svg width="38" height="38" viewBox="0 0 38 38" fill="none" xmlns="http://www.w3.org/2000/svg">
<path d="M25.333 33.25V30.0833C25.333 28.4036 24.6658 26.7927 23.478 25.605C22.2903 24.4173 20.6794 23.75 18.9997 23.75H7.91634C6.23664 23.75 4.62573 24.4173 3.438 25.605C2.25027 26.7927 1.58301 28.4036 1.58301 30.0833V33.25" stroke="white" stroke-width="2" stroke-linecap="round" stroke-linejoin="round"/>
<path d="M13.4583 17.4167C16.9561 17.4167 19.7917 14.5811 19.7917 11.0833C19.7917 7.58553 16.9561 4.75 13.4583 4.75C9.96053 4.75 7.125 7.58553 7.125 11.0833C7.125 14.5811 9.96053 17.4167 13.4583 17.4167Z" stroke="white" stroke-width="2" stroke-linecap="round" stroke-linejoin="round"/>
<path d="M26.917 17.4167L30.0837 20.5833L36.417 14.25" stroke="white" stroke-width="2" stroke-linecap="round" stroke-linejoin="round"/>
</svg>
